<svg width="250" height="53" viewBox="0 0 250 53" fill="none" xmlns="http://www.w3.org/2000/svg">
<path d="M7.49611 14.3762L247.569 5.20141L242.373 42.3129L2.48932 52.6706L7.49611 14.3762Z" fill="#3F3F3F"/>
<path d="M14.4926 9.60664L243.681 0.883029L238.829 37.9803L9.82446 47.887L14.4926 9.60664Z" fill="#EFEFEF"/>
<path d="M60.0198 34.4127C59.8732 34.4188 59.7503 34.3773 59.6509 34.2881C59.5516 34.1988 59.4971 34.0811 59.4875 33.9347L58.8103 23.5969L55.2534 23.746C55.1069 23.7521 54.9839 23.7106 54.8846 23.6214C54.7843 23.5188 54.7299 23.401 54.7212 23.268L54.5813 21.1326C54.5717 20.9862 54.6105 20.8645 54.6976 20.7675C54.7848 20.6704 54.9016 20.6188 55.0481 20.6127L65.7987 20.162C65.9452 20.1558 66.0682 20.1974 66.1675 20.2866C66.2669 20.3758 66.3214 20.4936 66.3309 20.64L66.4708 22.7754C66.4796 22.9084 66.4408 23.0301 66.3545 23.1405C66.2673 23.2375 66.1505 23.2891 66.004 23.2953L62.4471 23.4444L63.1243 33.7822C63.1339 33.9286 63.0951 34.0503 63.008 34.1473C62.9208 34.2444 62.804 34.296 62.6574 34.3021L60.0198 34.4127ZM70.1838 34.1867C69.4644 34.2168 68.8096 34.1109 68.2193 33.8688C67.6415 33.6128 67.1708 33.259 66.8073 32.8073C66.4437 32.3556 66.2428 31.8371 66.2044 31.2516C66.1425 30.307 66.4801 29.5457 67.217 28.9678C67.953 28.3766 68.954 27.9544 70.2198 27.7013L72.6927 27.2173L72.6744 26.9379C72.643 26.459 72.5192 26.0973 72.3028 25.8529C72.0864 25.6084 71.7118 25.4974 71.1789 25.5198C70.8059 25.5354 70.5043 25.6214 70.2741 25.7778C70.0572 25.9337 69.8904 26.1408 69.7738 26.3992C69.6652 26.5771 69.5044 26.6706 69.2912 26.6795L67.0532 26.7734C66.9066 26.7795 66.7908 26.7444 66.7056 26.6679C66.6196 26.5781 66.5793 26.4731 66.5848 26.3528C66.5691 26.1133 66.6378 25.8369 66.791 25.5236C66.9566 25.1965 67.2158 24.8721 67.5688 24.5504C67.9218 24.2288 68.3848 23.9559 68.9578 23.7317C69.5309 23.5076 70.2304 23.3782 71.0564 23.3436C71.9223 23.3073 72.6682 23.3761 73.294 23.5499C73.9199 23.7238 74.4311 23.9826 74.8277 24.3261C75.2375 24.6692 75.5518 25.0829 75.7706 25.5674C75.9884 26.0385 76.1166 26.5668 76.1549 27.1522L76.5524 33.2192C76.5619 33.3656 76.5165 33.4876 76.416 33.5852C76.3289 33.6822 76.2187 33.7335 76.0855 33.7391L73.7675 33.8363C73.621 33.8424 73.498 33.8009 73.3987 33.7117C73.2993 33.6224 73.2449 33.5047 73.2353 33.3583L73.1895 32.6598C73.0329 32.9199 72.815 33.1625 72.5359 33.3876C72.2568 33.6128 71.9213 33.7936 71.5295 33.9301C71.1519 34.0794 70.7033 34.1649 70.1838 34.1867ZM70.9739 31.8722C71.3602 31.856 71.7013 31.7616 71.9973 31.5891C72.3057 31.4027 72.5351 31.133 72.6856 30.7798C72.8486 30.4127 72.9127 29.9631 72.8778 29.4309L72.8595 29.1515L71.1806 29.5221C70.5615 29.6548 70.1128 29.8404 69.8345 30.0788C69.5687 30.3034 69.4454 30.5621 69.4646 30.8548C69.4794 31.081 69.5586 31.2711 69.7023 31.4252C69.846 31.5793 70.0274 31.6984 70.2467 31.7826C70.465 31.8535 70.7075 31.8833 70.9739 31.8722ZM79.3395 33.6027C79.193 33.6088 79.07 33.5673 78.9707 33.4781C78.8713 33.3888 78.8168 33.271 78.8073 33.1247L78.1928 23.7448C78.1832 23.5984 78.222 23.4767 78.3091 23.3797C78.3963 23.2827 78.5131 23.2311 78.6597 23.2249L80.9576 23.1286C81.1042 23.1224 81.2271 23.164 81.3265 23.2532C81.4258 23.3424 81.4803 23.4602 81.4899 23.6066L81.5396 24.3649C81.8589 23.938 82.2892 23.573 82.8304 23.2702C83.3716 22.9673 84.0219 22.8 84.7812 22.7681C85.5539 22.7358 86.2446 22.8802 86.8534 23.2016C87.4755 23.5224 87.9753 24.0151 88.3528 24.6796C88.7428 25.3304 88.9696 26.1413 89.0332 27.1126L89.398 32.6807C89.4075 32.827 89.3621 32.949 89.2616 33.0466C89.1745 33.1436 89.0643 33.195 88.9311 33.2005L86.4133 33.3061C86.2801 33.3117 86.1571 33.2701 86.0444 33.1815C85.9451 33.0923 85.8906 32.9745 85.881 32.8281L85.5241 27.3798C85.4832 26.7545 85.2986 26.2819 84.9704 25.9621C84.6547 25.6285 84.2037 25.474 83.6176 25.4985C83.0714 25.5214 82.6431 25.7128 82.3327 26.0727C82.0348 26.4188 81.9063 26.9044 81.9473 27.5298L82.3042 32.9781C82.3138 33.1244 82.2683 33.2464 82.1679 33.344C82.0807 33.4411 81.9705 33.4924 81.8373 33.498L79.3395 33.6027ZM92.1603 33.0651C92.0137 33.0713 91.8908 33.0298 91.7914 32.9405C91.6921 32.8513 91.6376 32.7335 91.628 32.5872L91.0136 23.2073C91.004 23.0609 91.0427 22.9392 91.1299 22.8422C91.217 22.7451 91.3339 22.6935 91.4804 22.6874L93.8384 22.5885C93.9716 22.5829 94.0879 22.6248 94.1872 22.714C94.2999 22.8027 94.361 22.9202 94.3706 23.0665L94.9851 32.4464C94.9947 32.5928 94.9492 32.7147 94.8487 32.8123C94.7616 32.9094 94.6514 32.9607 94.5182 32.9663L92.1603 33.0651ZM91.3624 21.1914C91.2159 21.1976 91.0929 21.156 90.9936 21.0668C90.8942 20.9776 90.8397 20.8598 90.8301 20.7135L90.7138 18.9373C90.7042 18.7909 90.743 18.6692 90.8301 18.5722C90.9164 18.4618 91.0328 18.4036 91.1794 18.3974L93.5573 18.2977C93.7038 18.2916 93.8272 18.3398 93.9274 18.4423C94.0401 18.531 94.1012 18.6485 94.1108 18.7948L94.2272 20.571C94.2368 20.7174 94.1913 20.8394 94.0908 20.937C94.0037 21.034 93.8868 21.0856 93.7403 21.0917L91.3624 21.1914Z" fill="#0A2B27"/>
<path d="M98.0782 32.817C97.945 32.8226 97.822 32.7811 97.7094 32.6924C97.61 32.6032 97.5555 32.4854 97.5459 32.339L96.6961 19.3668C96.6866 19.2205 96.7253 19.0988 96.8125 19.0018C96.913 18.9042 97.0298 18.8526 97.163 18.847L99.3211 18.7565C99.5343 18.7476 99.6981 18.8007 99.8125 18.916C99.9393 19.0174 100.018 19.1008 100.049 19.1662L103.979 25.3253L107.083 18.8713C107.119 18.8031 107.18 18.7138 107.266 18.6035C107.365 18.4793 107.527 18.4124 107.754 18.4029L109.892 18.3133C110.038 18.3072 110.161 18.3487 110.261 18.4379C110.373 18.5266 110.434 18.6441 110.444 18.7904L111.294 31.7626C111.303 31.909 111.258 32.031 111.158 32.1286C111.07 32.2256 110.954 32.2772 110.807 32.2834L108.429 32.3831C108.283 32.3892 108.153 32.3479 108.04 32.2593C107.941 32.17 107.886 32.0523 107.877 31.9059L107.387 24.4219L105.402 28.6877C105.356 28.8097 105.283 28.9194 105.183 29.017C105.082 29.1146 104.939 29.1674 104.752 29.1752L103.713 29.2187C103.527 29.2266 103.377 29.1861 103.265 29.0975C103.152 29.0088 103.058 28.906 102.984 28.789L100.453 24.7127L100.943 32.1966C100.953 32.343 100.914 32.4647 100.827 32.5617C100.739 32.6588 100.623 32.7104 100.476 32.7165L98.0782 32.817ZM114.387 32.1333C114.24 32.1394 114.117 32.0979 114.018 32.0086C113.919 31.9194 113.864 31.8016 113.855 31.6553L113.24 22.2754C113.231 22.129 113.269 22.0073 113.356 21.9103C113.444 21.8132 113.56 21.7617 113.707 21.7555L116.065 21.6566C116.198 21.6511 116.314 21.6929 116.414 21.7821C116.526 21.8708 116.588 21.9883 116.597 22.1346L117.212 31.5145C117.221 31.6609 117.176 31.7829 117.075 31.8805C116.988 31.9775 116.878 32.0288 116.745 32.0344L114.387 32.1333ZM113.589 20.2596C113.442 20.2657 113.319 20.2242 113.22 20.1349C113.121 20.0457 113.066 19.9279 113.057 19.7816L112.94 18.0054C112.931 17.859 112.97 17.7373 113.057 17.6403C113.143 17.5299 113.259 17.4717 113.406 17.4655L115.784 17.3658C115.93 17.3597 116.054 17.4079 116.154 17.5104C116.267 17.5991 116.328 17.7166 116.337 17.863L116.454 19.6391C116.463 19.7855 116.418 19.9075 116.317 20.0051C116.23 20.1021 116.113 20.1537 115.967 20.1599L113.589 20.2596ZM120.085 31.8944C119.938 31.9005 119.815 31.859 119.716 31.7697C119.617 31.6805 119.562 31.5627 119.553 31.4164L118.69 18.2446C118.68 18.0983 118.719 17.9766 118.806 17.8795C118.893 17.7825 119.01 17.7309 119.157 17.7247L121.515 17.6259C121.661 17.6197 121.784 17.6613 121.883 17.7505C121.983 17.8397 122.037 17.9575 122.047 18.1039L122.91 31.2756C122.919 31.422 122.881 31.5437 122.793 31.6407C122.706 31.7378 122.589 31.7894 122.443 31.7955L120.085 31.8944ZM130.112 31.6741C128.54 31.74 127.26 31.3667 126.272 30.5543C125.283 29.7419 124.714 28.4983 124.564 26.8236C124.558 26.7305 124.55 26.6107 124.541 26.4644C124.531 26.318 124.524 26.2049 124.519 26.1251C124.49 25.0724 124.664 24.1645 125.042 23.4016C125.431 22.6248 125.993 22.0275 126.728 21.6098C127.474 21.1783 128.36 20.941 129.386 20.898C130.558 20.8489 131.539 21.0412 132.329 21.475C133.132 21.9083 133.753 22.516 134.192 23.2981C134.63 24.0802 134.883 24.9835 134.95 26.0079L134.982 26.4869C134.991 26.6333 134.946 26.7552 134.845 26.8528C134.758 26.9499 134.648 27.0012 134.515 27.0068L128.121 27.2749C128.121 27.2882 128.123 27.3081 128.124 27.3348C128.126 27.3614 128.128 27.388 128.13 27.4146C128.168 27.7999 128.258 28.1497 128.399 28.4639C128.54 28.7782 128.743 29.0232 129.008 29.1989C129.273 29.3745 129.586 29.4548 129.945 29.4397C130.212 29.4285 130.429 29.3794 130.597 29.2923C130.777 29.1914 130.924 29.0852 131.037 28.9737C131.149 28.8489 131.236 28.7452 131.297 28.6626C131.408 28.5245 131.496 28.4408 131.561 28.4114C131.639 28.3681 131.757 28.3431 131.917 28.3364L134.395 28.2326C134.528 28.227 134.637 28.2624 134.722 28.3389C134.82 28.4015 134.867 28.4996 134.862 28.6332C134.863 28.86 134.768 29.1375 134.576 29.4657C134.384 29.794 134.091 30.1264 133.699 30.463C133.32 30.7858 132.83 31.0598 132.23 31.2851C131.631 31.5104 130.925 31.64 130.112 31.6741ZM127.991 25.2991L131.368 25.1575L131.366 25.1176C131.338 24.6919 131.247 24.3221 131.092 24.0084C130.952 23.6941 130.742 23.4561 130.465 23.2943C130.2 23.1319 129.888 23.0583 129.528 23.0734C129.169 23.0884 128.868 23.1878 128.626 23.3713C128.398 23.5544 128.227 23.8083 128.115 24.1332C128.003 24.4581 127.961 24.8334 127.988 25.2592L127.991 25.2991ZM137.667 31.1572C137.521 31.1633 137.398 31.1218 137.298 31.0326C137.199 30.9434 137.145 30.8256 137.135 30.6792L136.52 21.2993C136.511 21.153 136.55 21.0313 136.637 20.9342C136.724 20.8372 136.841 20.7856 136.987 20.7794L139.285 20.6831C139.432 20.677 139.555 20.7185 139.654 20.8077C139.753 20.8969 139.808 21.0147 139.818 21.1611L139.867 21.9195C140.187 21.4925 140.617 21.1276 141.158 20.8247C141.699 20.5219 142.35 20.3545 143.109 20.3227C143.882 20.2903 144.572 20.4348 145.181 20.7561C145.803 21.0769 146.303 21.5696 146.681 22.2342C147.07 22.8849 147.297 23.6959 147.361 24.6671L147.726 30.2352C147.735 30.3815 147.69 30.5035 147.589 30.6011C147.502 30.6982 147.392 30.7495 147.259 30.7551L144.741 30.8606C144.608 30.8662 144.485 30.8247 144.372 30.736C144.273 30.6468 144.218 30.529 144.209 30.3826L143.852 24.9343C143.811 24.309 143.626 23.8364 143.298 23.5167C142.982 23.183 142.531 23.0285 141.945 23.0531C141.399 23.076 140.971 23.2674 140.66 23.6273C140.362 23.9733 140.234 24.459 140.275 25.0843L140.632 30.5326C140.641 30.679 140.596 30.8009 140.496 30.8985C140.408 30.9956 140.298 31.0469 140.165 31.0525L137.667 31.1572ZM150.488 30.6197C150.341 30.6258 150.218 30.5843 150.119 30.4951C150.02 30.4058 149.965 30.288 149.956 30.1417L149.341 20.7618C149.332 20.6154 149.37 20.4937 149.458 20.3967C149.545 20.2997 149.662 20.2481 149.808 20.2419L152.166 20.1431C152.299 20.1375 152.416 20.1793 152.515 20.2685C152.628 20.3572 152.689 20.4747 152.698 20.621L153.313 30.0009C153.322 30.1473 153.277 30.2693 153.176 30.3669C153.089 30.4639 152.979 30.5152 152.846 30.5208L150.488 30.6197ZM149.69 18.746C149.544 18.7521 149.421 18.7106 149.321 18.6213C149.222 18.5321 149.167 18.4143 149.158 18.268L149.041 16.4918C149.032 16.3454 149.071 16.2237 149.158 16.1267C149.244 16.0163 149.36 15.9581 149.507 15.952L151.885 15.8523C152.031 15.8461 152.155 15.8943 152.255 15.9968C152.368 16.0855 152.429 16.203 152.438 16.3494L152.555 18.1256C152.564 18.2719 152.519 18.3939 152.419 18.4915C152.331 18.5885 152.215 18.6401 152.068 18.6463L149.69 18.746ZM158.817 30.4706C158.097 30.5008 157.443 30.3948 156.852 30.1527C156.275 29.8968 155.804 29.5429 155.44 29.0912C155.077 28.6395 154.876 28.121 154.838 27.5356C154.776 26.5909 155.113 25.8297 155.85 25.2518C156.586 24.6606 157.587 24.2384 158.853 23.9852L161.326 23.5013L161.308 23.2219C161.276 22.7429 161.152 22.3812 160.936 22.1368C160.719 21.8924 160.345 21.7813 159.812 21.8037C159.439 21.8193 159.137 21.9053 158.907 22.0617C158.69 22.2176 158.524 22.4247 158.407 22.6831C158.298 22.8611 158.137 22.9545 157.924 22.9635L155.686 23.0573C155.54 23.0635 155.424 23.0283 155.339 22.9518C155.253 22.862 155.212 22.757 155.218 22.6367C155.202 22.3972 155.271 22.1208 155.424 21.8075C155.59 21.4804 155.849 21.156 156.202 20.8344C156.555 20.5127 157.018 20.2398 157.591 20.0157C158.164 19.7915 158.864 19.6621 159.689 19.6275C160.555 19.5912 161.301 19.66 161.927 19.8339C162.553 20.0077 163.064 20.2665 163.461 20.6101C163.871 20.9531 164.185 21.3669 164.404 21.8513C164.622 22.3225 164.75 22.8507 164.788 23.4362L165.185 29.5032C165.195 29.6495 165.15 29.7715 165.049 29.8691C164.962 29.9661 164.852 30.0174 164.719 30.023L162.401 30.1202C162.254 30.1264 162.131 30.0848 162.032 29.9956C161.932 29.9064 161.878 29.7886 161.868 29.6422L161.823 28.9437C161.666 29.2038 161.448 29.4464 161.169 29.6716C160.89 29.8967 160.554 30.0775 160.163 30.214C159.785 30.3633 159.336 30.4488 158.817 30.4706ZM159.607 28.1561C159.993 28.1399 160.334 28.0455 160.63 27.873C160.939 27.6867 161.168 27.4169 161.319 27.0637C161.482 26.6967 161.546 26.247 161.511 25.7148L161.493 25.4354L159.814 25.806C159.195 25.9387 158.746 26.1243 158.468 26.3628C158.202 26.5874 158.078 26.846 158.098 27.1387C158.112 27.3649 158.192 27.555 158.335 27.7091C158.479 27.8632 158.661 27.9823 158.88 28.0665C159.098 28.1374 159.341 28.1673 159.607 28.1561ZM167.973 29.8866C167.826 29.8927 167.703 29.8512 167.604 29.762C167.504 29.6728 167.45 29.555 167.44 29.4086L166.577 16.2368C166.568 16.0905 166.607 15.9688 166.694 15.8718C166.781 15.7747 166.898 15.7231 167.044 15.717L169.402 15.6181C169.549 15.612 169.672 15.6535 169.771 15.7427C169.87 15.832 169.925 15.9497 169.935 16.0961L170.797 29.2679C170.807 29.4142 170.768 29.5359 170.681 29.633C170.594 29.73 170.477 29.7816 170.331 29.7877L167.973 29.8866ZM173.59 29.6511C173.444 29.6572 173.321 29.6157 173.221 29.5265C173.122 29.4372 173.068 29.3194 173.058 29.1731L172.892 26.6385C172.883 26.5055 172.923 26.3904 173.01 26.2934C173.096 26.183 173.212 26.1248 173.359 26.1186L175.877 26.0131C176.023 26.0069 176.147 26.0551 176.247 26.1577C176.36 26.2463 176.42 26.3572 176.429 26.4902L176.595 29.0248C176.605 29.1711 176.559 29.2931 176.459 29.3907C176.371 29.4878 176.255 29.5394 176.108 29.5455L173.59 29.6511ZM179.369 29.4088C179.222 29.4149 179.099 29.3734 179 29.2842C178.901 29.195 178.846 29.0772 178.837 28.9308L178.222 19.5509C178.213 19.4046 178.251 19.2829 178.338 19.1858C178.426 19.0888 178.542 19.0372 178.689 19.031L181.047 18.9322C181.18 18.9266 181.296 18.9684 181.396 19.0576C181.508 19.1463 181.57 19.2638 181.579 19.4102L182.194 28.7901C182.203 28.9364 182.158 29.0584 182.057 29.156C181.97 29.253 181.86 29.3044 181.727 29.3099L179.369 29.4088ZM178.571 17.5351C178.424 17.5412 178.301 17.4997 178.202 17.4105C178.103 17.3212 178.048 17.2035 178.039 17.0571L177.922 15.2809C177.913 15.1346 177.952 15.0129 178.039 14.9158C178.125 14.8055 178.241 14.7472 178.388 14.7411L180.766 14.6414C180.912 14.6352 181.036 14.6834 181.136 14.786C181.249 14.8746 181.31 14.9921 181.319 15.1385L181.436 16.9147C181.445 17.061 181.4 17.183 181.299 17.2806C181.212 17.3777 181.095 17.4292 180.949 17.4354L178.571 17.5351ZM188.457 29.2279C187.818 29.2547 187.232 29.1792 186.699 29.0014C186.179 28.8098 185.719 28.5222 185.32 28.1387C184.933 27.7413 184.621 27.2608 184.384 26.697C184.146 26.12 183.989 25.4595 183.914 24.7155C183.883 24.45 183.861 24.2175 183.848 24.0179C183.834 23.805 183.825 23.5719 183.822 23.3185C183.802 22.599 183.873 21.9489 184.035 21.3684C184.197 20.788 184.445 20.284 184.777 19.8564C185.11 19.4289 185.529 19.0978 186.035 18.8631C186.54 18.6152 187.112 18.4778 187.751 18.451C188.417 18.4231 188.997 18.5121 189.492 18.7182C189.985 18.911 190.41 19.1733 190.766 19.5053L190.486 15.2345C190.476 15.0881 190.515 14.9664 190.602 14.8694C190.689 14.7723 190.806 14.7207 190.953 14.7146L193.391 14.6124C193.524 14.6068 193.64 14.6486 193.739 14.7378C193.852 14.8265 193.913 14.944 193.923 15.0904L194.786 28.2621C194.795 28.4085 194.75 28.5305 194.649 28.6281C194.562 28.7251 194.452 28.7764 194.319 28.782L192.061 28.8767C191.914 28.8828 191.791 28.8413 191.692 28.752C191.593 28.6628 191.538 28.545 191.529 28.3987L191.487 27.7601C191.192 28.1593 190.8 28.4959 190.311 28.7699C189.821 29.044 189.203 29.1966 188.457 29.2279ZM189.361 26.5084C189.814 26.4894 190.161 26.3814 190.402 26.1846C190.655 25.9738 190.832 25.7129 190.931 25.4019C191.045 25.0903 191.096 24.7546 191.086 24.3948C191.082 24.1282 191.072 23.8751 191.056 23.6356C191.041 23.3961 191.018 23.1503 190.988 22.898C190.953 22.566 190.859 22.263 190.708 21.9892C190.556 21.7021 190.34 21.4776 190.063 21.3158C189.784 21.1407 189.432 21.0621 189.005 21.08C188.566 21.0984 188.219 21.2064 187.965 21.4038C187.724 21.6007 187.56 21.861 187.475 22.1848C187.389 22.5086 187.346 22.864 187.344 23.2509C187.331 23.665 187.358 24.0775 187.425 24.4883C187.477 24.873 187.567 25.2228 187.694 25.5376C187.822 25.8525 188.018 26.0977 188.284 26.2734C188.562 26.4485 188.921 26.5268 189.361 26.5084Z" fill="#868347"/>
</svg>
